<?xml version="1.0" encoding="UTF-8"?>
<svg version="1.1" xmlns="http://www.w3.org/2000/svg" width="512" height="512">
<path d="M0 0 C1.25255301 -0.01043099 2.50510603 -0.02086198 3.7956152 -0.03160906 C5.1881222 -0.02296055 6.5806269 -0.01393392 7.97312927 -0.00457001 C9.45041551 -0.00917741 10.92769718 -0.01552925 12.40496922 -0.02347898 C16.47009703 -0.04021776 20.5348505 -0.0319055 24.59997988 -0.01953411 C28.98178459 -0.01050444 33.36352376 -0.02444296 37.74531555 -0.0354538 C46.33146489 -0.05326594 54.91747458 -0.04938706 63.50362945 -0.03780323 C70.48005684 -0.02877977 77.45644503 -0.02754019 84.43287659 -0.0318985 C85.42475906 -0.03251143 86.41664153 -0.03312436 87.43858105 -0.03375587 C89.453398 -0.03503473 91.46821494 -0.03633159 93.48303187 -0.03764623 C112.38819328 -0.04905993 131.29327719 -0.03592596 150.19842589 -0.01444477 C166.42959957 0.00342692 182.66065883 0.00032304 198.89183044 -0.01811981 C217.72807036 -0.03951259 236.5642423 -0.04796122 255.40049267 -0.03567076 C257.40801174 -0.03439652 259.41553083 -0.03313904 261.42304993 -0.0318985 C262.90476294 -0.03097285 262.90476294 -0.03097285 264.41640955 -0.03002849 C271.38667749 -0.02657081 278.35690242 -0.03241293 285.3271637 -0.04181671 C293.81842938 -0.0530204 302.30954712 -0.05003106 310.80079579 -0.02869374 C315.13547235 -0.01816129 319.46990199 -0.01409865 323.80457687 -0.02729034 C327.76963945 -0.03917494 331.7342253 -0.03271734 335.69924438 -0.01138014 C337.13659755 -0.00689728 338.57399067 -0.00921795 340.01131833 -0.01888329 C341.95949365 -0.03098291 343.90778117 -0.01622373 345.85592651 0 C346.93975837 0.00064941 348.02359022 0.00129882 349.14026546 0.00196791 C352.6726353 0.63730163 353.84423192 1.60722446 355.92796326 4.50336456 C356.42475724 6.94300342 356.42475724 6.94300342 356.42015457 9.72761917 C356.42811877 10.79105222 356.43608296 11.85448528 356.44428849 12.95014358 C356.43263713 14.11744954 356.42098576 15.28475551 356.40898132 16.48743439 C356.41239902 17.72816845 356.41581672 18.96890252 356.41933799 20.24723458 C356.42479427 23.69321233 356.41226916 27.13828455 356.39222574 30.58415294 C356.37497156 34.29918203 356.38079599 38.01418254 356.38383484 41.72924042 C356.3859335 48.16644434 356.37337051 54.60348624 356.35088348 61.04064941 C356.31839215 70.34770894 356.30795941 79.65469003 356.30293152 88.96180013 C356.29417436 104.06147411 356.26754737 119.16106171 356.22972107 134.26068878 C356.19301187 148.92962969 356.16469477 163.59854716 356.14768982 178.26752472 C356.14663893 179.17153349 356.14558803 180.07554225 356.14450529 181.00694522 C356.13928519 185.54203613 356.13423035 190.0771272 356.12925768 194.61221838 C356.08778253 232.24266143 356.01732265 269.87300628 355.92796326 307.50336456 C356.62429871 307.49448212 357.32063416 307.48559967 358.03807068 307.47644806 C364.62833191 307.39601024 371.21845442 307.33525298 377.80909729 307.29611588 C381.19675284 307.27531785 384.58399982 307.24714569 387.97142029 307.20160675 C391.87370972 307.15291763 395.77542478 307.13035528 399.67796326 307.11273956 C400.88347839 307.09209442 402.08899353 307.07144928 403.33103943 307.05017853 C411.26367351 307.04807728 416.77086037 307.91605763 422.95140076 313.24945831 C423.39741638 313.80762238 423.84343201 314.36578644 424.30296326 314.94086456 C424.76444763 315.4964505 425.22593201 316.05203644 425.70140076 316.62445831 C428.44535112 320.82777081 429.17933573 324.50075415 429.19538879 329.47963715 C429.20391876 330.67817322 429.21244873 331.87670929 429.22123718 333.11156464 C429.22033081 334.41817551 429.21942444 335.72478638 429.2184906 337.07099152 C429.22447816 338.46760161 429.23128424 339.8642084 429.23884583 341.26081085 C429.25649105 345.04813898 429.26120061 348.83537668 429.2624774 352.62274194 C429.26390053 354.99126067 429.26817321 357.35975653 429.27347183 359.72826958 C429.29196803 367.99796123 429.30014306 376.26758846 429.29856873 384.53730011 C429.2973678 392.23483499 429.31846137 399.93208925 429.35005605 407.62955314 C429.37624628 414.24714735 429.38693486 420.86465008 429.38565791 427.48229569 C429.38514903 431.43074201 429.39079075 435.37893894 429.41201401 439.32733345 C429.43144267 443.04323299 429.43148976 446.75864646 429.41698074 450.4745636 C429.41390779 452.4792594 429.43053713 454.48395549 429.44786072 456.4885788 C429.39164915 464.57622943 428.61979658 470.22513266 423.18186951 476.52680206 C422.62370544 476.97281769 422.06554138 477.41883331 421.49046326 477.87836456 C420.93487732 478.33984894 420.37929138 478.80133331 419.80686951 479.27680206 C415.65757279 481.98549057 412.04546029 482.75222264 407.12791443 482.73041534 C405.98710922 482.73026428 404.84630402 482.73011322 403.67092896 482.72995758 C402.44992996 482.71963501 401.22893097 482.70931244 399.97093201 482.69867706 C398.71283218 482.69584717 397.45473236 482.69301727 396.1585083 482.69010162 C392.82608943 482.68081577 389.49394779 482.66286932 386.16160583 482.64069366 C382.75627529 482.62017473 379.35091603 482.61108702 375.94554138 482.60102081 C369.27293908 482.57898097 362.60046717 482.54551847 355.92796326 482.50336456 C355.94891052 483.2345047 355.96985779 483.96564484 355.99143982 484.71894073 C356.0747664 488.04277457 356.12667657 491.3663884 356.17796326 494.69086456 C356.21147888 495.84135284 356.24499451 496.99184113 356.27952576 498.17719269 C356.29241638 499.28900909 356.30530701 500.4008255 356.31858826 501.54633331 C356.33953552 502.56751251 356.36048279 503.58869171 356.38206482 504.64081573 C355.79283305 508.35519342 354.57055547 509.85052114 351.92796326 512.50336456 C349.14026546 513.12895972 349.14026546 513.12895972 345.85592651 513.12977695 C344.6033735 513.14219899 343.35082048 513.15462103 342.06031132 513.16741949 C340.6678028 513.15591791 339.27529812 513.14394567 337.88279724 513.13155365 C336.40550849 513.13659702 334.92822584 513.14382423 333.4509573 513.15305179 C329.38574908 513.17203132 325.32114003 513.15970866 321.25594664 513.14232886 C316.87413533 513.12898807 312.49241363 513.14438009 308.11061096 513.15615082 C299.52442828 513.17455643 290.93847274 513.16599566 282.35229707 513.14806259 C275.375865 513.13405259 268.39949471 513.13014034 261.42304993 513.13350487 C259.93522622 513.13422103 259.93522622 513.13422103 258.41734546 513.13495166 C256.40252851 513.13597796 254.38771157 513.13703332 252.37289464 513.13811743 C234.54582771 513.1466904 216.71887064 513.12999013 198.89183044 513.10028839 C181.58253871 513.07144955 164.27340524 513.06436668 146.96409607 513.07978058 C128.12785091 513.09653118 109.29168095 513.10058861 90.45543385 513.08307022 C88.44791477 513.08122578 86.44039568 513.07939105 84.43287659 513.07756615 C83.44506791 513.07665406 82.45725923 513.07574197 81.43951696 513.07480224 C74.46925271 513.06918973 67.49902509 513.07251066 60.52876282 513.0791111 C52.03748963 513.08683241 43.54637241 513.08013519 35.05513072 513.05493606 C30.72045909 513.04241299 26.38603062 513.03632831 22.05134964 513.04747772 C18.08627868 513.05748408 14.1216937 513.04913823 10.15668213 513.02589654 C8.71933236 513.02071715 7.28193939 513.0223351 5.84460819 513.03129119 C3.89642376 513.0424242 1.94814047 513.0267053 0 513.00952244 C-1.08383185 513.00833096 -2.16766371 513.00713947 -3.28433895 513.00591189 C-6.75914777 512.37949683 -7.94402423 511.27259369 -10.07203674 508.50336456 C-10.55305481 505.63062286 -10.55305481 505.63062286 -10.52613831 502.26605988 C-10.52583618 501.00505463 -10.52553406 499.74404938 -10.52522278 498.44483185 C-10.50479779 497.0737113 -10.48393383 495.70259723 -10.46266174 494.33148956 C-10.45519791 492.92473912 -10.44950565 491.51797826 -10.44551086 490.11121368 C-10.43026535 486.41528174 -10.39099405 482.7199823 -10.34669495 479.02429962 C-10.30571818 475.25048122 -10.28749479 471.47656024 -10.26734924 467.70258331 C-10.22449773 460.30255592 -10.15626079 452.90304899 -10.07203674 445.50336456 C-10.76837219 445.51224701 -11.46470764 445.52112946 -12.18214417 445.53028107 C-18.7724054 445.61071889 -25.3625279 445.67147615 -31.95317078 445.71061325 C-35.34082633 445.73141128 -38.7280733 445.75958343 -42.11549377 445.80512238 C-46.0177832 445.85381149 -49.91949826 445.87637385 -53.82203674 445.89398956 C-55.02755188 445.9146347 -56.23306702 445.93527985 -57.47511292 445.9565506 C-65.39497624 445.95864846 -70.9651892 445.11865892 -77.09547424 439.72211456 C-77.54148987 439.15492706 -77.98750549 438.58773956 -78.44703674 438.00336456 C-78.90852112 437.43617706 -79.37000549 436.86898956 -79.84547424 436.28461456 C-82.68858218 432.15576991 -83.32535918 429.24895999 -83.34619141 424.19178009 C-83.35616653 422.89364883 -83.36614166 421.59551758 -83.37641907 420.25804901 C-83.37731485 418.8212663 -83.37797843 417.38448342 -83.37843323 415.9477005 C-83.38605568 414.4330123 -83.39448333 412.91832798 -83.40365601 411.40364838 C-83.42560228 407.28983545 -83.43440032 403.17609687 -83.43948245 399.06223202 C-83.44312654 396.49052996 -83.44936694 393.91884735 -83.45648384 391.34715271 C-83.48098091 382.37073156 -83.49403033 373.39436821 -83.49757385 364.41791534 C-83.50120708 356.05859518 -83.53108634 347.69964264 -83.57297844 339.34043479 C-83.60770705 332.15811018 -83.62312275 324.97590722 -83.62381989 317.79349923 C-83.62461197 313.50628307 -83.63331841 309.21944122 -83.66181755 304.93231201 C-83.68804183 300.89708778 -83.69017957 296.86254696 -83.67416191 292.82727623 C-83.67235072 291.35029037 -83.6790084 289.87326482 -83.69498062 288.39636421 C-83.77769232 280.24827247 -83.77212618 273.7398759 -78.07203674 267.50336456 C-74.40218906 263.84925257 -70.66241802 260.7355778 -65.38911438 260.26285553 C-64.36763306 260.26729675 -63.34615173 260.27173798 -62.29371643 260.27631378 C-60.5523642 260.27654037 -60.5523642 260.27654037 -58.77583313 260.27677155 C-57.52779907 260.28709412 -56.27976501 260.29741669 -54.99391174 260.30805206 C-53.07134552 260.31229691 -53.07134552 260.31229691 -51.10993958 260.3166275 C-47.71014036 260.32424669 -44.31051328 260.34388022 -40.91078186 260.36603546 C-37.43851551 260.38653098 -33.96622121 260.39563713 -30.49391174 260.40570831 C-23.68654957 260.4271279 -16.87930143 260.461243 -10.07203674 260.50336456 C-10.07572392 259.18769627 -10.07941109 257.87202797 -10.08320999 256.51649094 C-10.16980008 225.30066895 -10.23577806 194.08487866 -10.27629806 162.86896469 C-10.28130102 159.02867329 -10.2864783 155.18838214 -10.29176331 151.34809113 C-10.29281255 150.58354299 -10.29386179 149.81899485 -10.29494283 149.03127858 C-10.31235855 136.6440768 -10.34390263 124.2569491 -10.38064793 111.8697913 C-10.41802493 99.16391718 -10.44026572 86.45808191 -10.44839072 73.75215507 C-10.45388525 65.90887796 -10.47125275 58.06581024 -10.50370261 50.22259757 C-10.52730218 44.21321024 -10.52986481 38.20400387 -10.52446747 32.19456482 C-10.52557124 29.72579405 -10.53357176 27.25701562 -10.54885864 24.78829193 C-10.56866222 21.42627626 -10.56401052 18.06516783 -10.55305481 14.70313263 C-10.56470618 13.71870123 -10.57635754 12.73426983 -10.58836198 11.72000718 C-10.58039778 10.82029372 -10.57243359 9.92058026 -10.56422806 8.99360275 C-10.56574694 8.2174544 -10.56726582 7.44130604 -10.56883073 6.64163804 C-9.24213773 0.93135864 -5.28656645 0.0031676 0 0 Z " fill="#2D2D59" transform="translate(83.07203674316406,-0.5033645629882813)"/>
<path d="M0 0 C110.88 0 221.76 0 336 0 C336 79.86 336 159.72 336 242 C301.35 242.495 301.35 242.495 266 243 C259.2715239 245.99400123 259.2715239 245.99400123 254.625 250.4375 C254.16351563 250.99308594 253.70203125 251.54867187 253.2265625 252.12109375 C250.50053184 256.296956 249.74875407 259.95341026 249.73257446 264.90034485 C249.72404449 266.08205261 249.71551453 267.26376038 249.70672607 268.48127747 C249.70763245 269.76918686 249.70853882 271.05709625 249.70947266 272.3840332 C249.70348495 273.76093916 249.69667885 275.13784177 249.68911743 276.51473999 C249.67147358 280.24835108 249.66676271 283.98187044 249.66548586 287.71551919 C249.66406265 290.05053612 249.65978981 292.38552984 249.65449142 294.720541 C249.63599565 302.87352347 249.62782014 311.02644061 249.62939453 319.17944336 C249.63059543 326.76791678 249.60950222 334.35610554 249.5779072 341.94450694 C249.55171548 348.46868386 249.54102846 354.99276798 249.54230535 361.51699704 C249.54281419 365.40955346 249.53717484 369.30185689 249.51594925 373.19436073 C249.49651805 376.85773285 249.49647518 380.52061194 249.51098251 384.18400192 C249.51405488 386.16007132 249.49742787 388.13614101 249.48010254 390.11213684 C249.53673381 398.14657144 250.34392351 403.76320443 255.74609375 410.0234375 C256.30425781 410.46945312 256.86242187 410.91546875 257.4375 411.375 C257.99308594 411.83648437 258.54867188 412.29796875 259.12109375 412.7734375 C263.66368456 415.738871 267.617399 416.26072864 272.9934082 416.31884766 C273.67688828 416.32889328 274.36036835 416.3389389 275.06455994 416.34928894 C277.30995897 416.38002905 279.55523926 416.39713014 281.80078125 416.4140625 C283.36306269 416.43278157 284.92533411 416.45235554 286.4875946 416.4727478 C290.58922401 416.52399709 294.69088616 416.56366121 298.79266357 416.60089111 C302.98230036 416.64097605 307.17180174 416.69204787 311.36132812 416.7421875 C319.57413293 416.83886152 327.78699396 416.92227738 336 417 C336 421.95 336 426.9 336 432 C225.12 432 114.24 432 0 432 C0 414.84 0 397.68 0 380 C3.89619141 379.9906543 7.79238281 379.98130859 11.80664062 379.97167969 C24.68292282 379.93790517 37.55903654 379.882554 50.43518829 379.81609726 C58.24162631 379.77633275 66.0479639 379.74392718 73.85449219 379.72900391 C80.66077935 379.71597389 87.4668453 379.68897504 94.27300787 379.64538693 C97.87496692 379.62280214 101.47665344 379.6070875 105.07868958 379.60811615 C109.10550562 379.60900384 113.13152046 379.57869765 117.15820312 379.54589844 C118.93845383 379.55344398 118.93845383 379.55344398 120.75466919 379.56114197 C128.49951614 379.46361395 133.98992395 378.46043242 140.0234375 373.25390625 C140.69246094 372.41666016 140.69246094 372.41666016 141.375 371.5625 C141.83648437 371.00691406 142.29796875 370.45132812 142.7734375 369.87890625 C145.58807368 365.56731389 146.25184869 361.82537705 146.26742554 356.72001648 C146.27595551 355.45416718 146.28448547 354.18831787 146.29327393 352.8841095 C146.29257496 351.48873889 146.29165193 350.09336838 146.29052734 348.69799805 C146.29651439 347.22257142 146.30332034 345.74714791 146.31088257 344.27172852 C146.32853291 340.26953217 146.33323757 336.26742139 146.33451414 332.26518989 C146.33593696 329.76266388 146.34020907 327.26015955 146.34550858 324.75763893 C146.36400637 316.02111051 146.37217959 307.28464306 146.37060547 298.5480957 C146.36940446 290.41431453 146.39049934 282.28079889 146.4220928 274.14708489 C146.44827744 267.15582145 146.45897183 260.1646446 146.45769465 253.17333251 C146.45718561 249.00132618 146.46283616 244.82955583 146.48405075 240.6575985 C146.50346994 236.73158865 146.50353281 232.80603896 146.48901749 228.88001251 C146.48693275 227.44334806 146.49161031 226.00665452 146.5037384 224.57003975 C146.57440084 215.61618683 146.30693012 208.99102864 140.25390625 201.9765625 C139.41666016 201.30753906 139.41666016 201.30753906 138.5625 200.625 C138.00691406 200.16351563 137.45132813 199.70203125 136.87890625 199.2265625 C132.8394923 196.5896062 129.25185756 195.74928613 124.46342468 195.7215271 C122.81577008 195.70479981 122.81577008 195.70479981 121.13482952 195.6877346 C119.33498466 195.68447639 119.33498466 195.68447639 117.4987793 195.68115234 C116.20959249 195.67099909 114.92040567 195.66084583 113.5921526 195.6503849 C110.11172234 195.62317037 106.63133422 195.60774904 103.1508255 195.59480286 C99.88228057 195.58084893 96.6138234 195.55621609 93.34533691 195.5324707 C83.79278944 195.46927355 74.24013503 195.42317702 64.6875 195.375 C43.340625 195.25125 21.99375 195.1275 0 195 C0 130.65 0 66.3 0 0 Z " fill="#46467E" transform="translate(88,65)"/>
<path d="M0 0 C0.80026613 -0.00694553 1.60053227 -0.01389106 2.42504889 -0.02104706 C5.10986607 -0.03936117 7.79380402 -0.02904075 10.47865295 -0.01878357 C12.40214704 -0.02583984 14.32563558 -0.03458362 16.24911499 -0.04489136 C21.47641054 -0.06742819 26.70340394 -0.06443553 31.93072963 -0.05556989 C36.29223112 -0.0504663 40.6536755 -0.05774746 45.01517111 -0.06504196 C55.30317918 -0.08205471 65.59103898 -0.07846135 75.87904358 -0.06175232 C86.49806753 -0.04482885 97.11668048 -0.06066565 107.73565954 -0.0929752 C116.84830043 -0.11965269 125.96081323 -0.12695209 135.07348925 -0.11846012 C140.51805876 -0.11352563 145.96238091 -0.11577482 151.40691948 -0.13624763 C156.52637497 -0.15457577 161.6452383 -0.14868102 166.76466179 -0.12404823 C168.64441633 -0.11903125 170.52421576 -0.12255303 172.40393448 -0.13519669 C174.9687859 -0.15108499 177.53167727 -0.13621783 180.09643555 -0.11352539 C181.21443532 -0.13127898 181.21443532 -0.13127898 182.35502094 -0.14939123 C186.13410206 -0.08137968 187.99204525 0.42738918 191.07298183 2.67440128 C193.44415893 5.97781693 193.73945326 7.55976947 193.74662781 11.58705139 C193.76072693 12.80675125 193.77482605 14.02645111 193.78935242 15.28311157 C193.77963185 16.62657539 193.76939106 17.97003552 193.75868225 19.31349182 C193.76546077 20.73468139 193.77436523 22.15586218 193.78523254 23.57702637 C193.8080053 27.43046843 193.79919844 31.28324035 193.78333712 35.13669395 C193.7706674 39.17159693 193.78242119 43.206443 193.79026794 47.24134827 C193.79936143 54.01696563 193.78738467 60.79231039 193.76356506 67.56788635 C193.73635413 75.39850667 193.74516852 83.22847606 193.77269709 91.0590806 C193.79539591 97.78537516 193.79858454 104.51147391 193.78550375 111.2377944 C193.77771339 115.25378176 193.77665593 119.26946327 193.79318619 123.28543091 C193.80764322 127.0613911 193.79758809 130.83651313 193.7687149 134.61238289 C193.76211047 135.99707206 193.76399097 137.38183192 193.77502823 138.76649284 C193.78871699 140.65839473 193.76849636 142.55045099 193.74662781 144.442276 C193.74474268 145.5004528 193.74285755 146.55862961 193.7409153 147.64887238 C192.85874009 151.66684304 191.416567 153.1015944 188.11170959 155.5146637 C185.2541371 156.00771788 182.99282682 156.19251987 180.14112854 156.14958191 C179.34409153 156.15738186 178.54705453 156.16518182 177.72586489 156.17321813 C175.05778423 156.19314613 172.3911287 156.17737113 169.72303772 156.16163635 C167.8092465 156.16841213 165.89546179 156.17731504 163.98168945 156.18818665 C158.7853721 156.21099117 153.5895508 156.20213877 148.39322472 156.18629122 C142.95696545 156.17363828 137.52074884 156.18537065 132.08448792 156.19322205 C122.95497506 156.20232035 113.82566441 156.19032586 104.69618225 156.16651917 C94.13904063 156.13930764 83.58238179 156.14812166 73.02525187 156.17565119 C63.96353473 156.19833601 54.901963 156.20154538 45.84022665 156.18845785 C40.42698343 156.18065992 35.01396719 156.17963123 29.60073853 156.19614029 C24.51161648 156.21057657 19.42311728 156.20057849 14.33406258 156.17166901 C12.46560259 156.16505372 10.59709025 156.16696341 8.72865105 156.17798233 C6.17915505 156.19163228 3.63165892 156.1745305 1.08229065 156.14958191 C0.34153054 156.16073552 -0.39922957 156.17188913 -1.16243696 156.18338072 C-4.92844245 156.11181458 -6.77673801 155.59599772 -9.8471899 153.35729885 C-12.22987326 150.03894218 -12.51425548 148.44440728 -12.51647949 144.39758301 C-12.52913345 143.16802383 -12.54178741 141.93846466 -12.55482483 140.67164612 C-12.54350966 139.3171497 -12.53168223 137.96265749 -12.51939392 136.60816956 C-12.5245344 135.17550776 -12.53181665 133.74285228 -12.54107666 132.31021118 C-12.55958145 128.42582653 -12.5466592 124.54212879 -12.52698636 120.65777278 C-12.51059379 116.59171555 -12.51941345 112.52570161 -12.52450562 108.45962524 C-12.5290254 101.63272636 -12.51316279 94.80610158 -12.48521423 87.97926331 C-12.45314985 80.08620828 -12.45318329 72.19364724 -12.470429 64.30055708 C-12.48629051 56.70632605 -12.47956385 49.11227615 -12.46249199 41.51805305 C-12.45561901 38.28644045 -12.45665637 35.05497293 -12.46403694 31.82336235 C-12.47169618 28.01876816 -12.45958633 24.21473651 -12.43218803 20.41023827 C-12.42529967 19.01384399 -12.42521114 17.61739722 -12.43240356 16.22100449 C-12.44108726 14.31558441 -12.42271737 12.41009811 -12.4029541 10.50476074 C-12.40014718 9.4382878 -12.39734026 8.37181486 -12.39444828 7.27302456 C-11.88829041 4.5146637 -11.88829041 4.5146637 -10.34914207 2.17244911 C-6.96286727 -0.10875989 -3.94592923 -0.04349793 0 0 Z " fill="#D2DBFA" transform="translate(26.888290405273438,274.48533630371094)"/>
<path d="M0 0 C1.14259781 -0.01272446 2.28519562 -0.02544891 3.4624176 -0.03855896 C4.71188171 -0.03203308 5.96134583 -0.0255072 7.24867249 -0.01878357 C9.22722984 -0.03170692 9.22722984 -0.03170692 11.24575806 -0.04489136 C14.86157544 -0.06739651 18.47695535 -0.06444314 22.09281611 -0.05556989 C25.11224958 -0.05045999 28.13160083 -0.05775259 31.15102583 -0.06504196 C38.27479363 -0.08204475 45.39834724 -0.0784717 52.52210999 -0.06175232 C59.8693072 -0.04483141 67.21591027 -0.06066371 74.56304258 -0.0929752 C80.87317262 -0.11967392 87.18311774 -0.12694638 93.49329859 -0.11846012 C97.2611688 -0.1135315 101.02868155 -0.11574237 104.79650688 -0.13624763 C108.34016475 -0.15460958 111.88296842 -0.1486414 115.42658043 -0.12404823 C117.34477416 -0.11665655 119.26301337 -0.13389224 121.18113708 -0.15187073 C125.97114145 -0.09895332 129.39311882 -0.01361593 133.66088867 2.24905396 C136.43022824 7.48063166 136.08424159 12.56459979 136.03651428 18.39552307 C136.04527588 19.70495377 136.05403748 21.01438446 136.06306458 22.36349487 C136.08582818 25.94836705 136.07703449 29.53251851 136.06116915 33.11740303 C136.04849457 36.87203514 136.06025457 40.62660627 136.06809998 44.38124084 C136.07719207 50.68608154 136.06522045 56.99062922 136.04139709 63.29542542 C136.01418631 70.58074662 136.02300082 77.86536818 136.05052912 85.15067244 C136.073232 91.40988379 136.07641462 97.66888472 136.06333578 103.92812395 C136.0555476 107.66466265 136.0544818 111.40087266 136.07101822 115.13739014 C136.08816764 119.30328181 136.0643885 123.46797076 136.03651428 127.63380432 C136.04663544 128.87032242 136.05675659 130.10684052 136.06718445 131.38082886 C136.00801863 136.14610686 135.90983411 139.53588433 133.65415955 143.77928162 C128.42492189 146.55900211 123.34172063 146.20938097 117.50868225 146.16163635 C115.54453621 146.17477875 115.54453621 146.17477875 113.54071045 146.18818665 C109.95583827 146.21095025 106.37168681 146.20215656 102.78680229 146.18629122 C99.03217019 146.17361664 95.27759905 146.18537664 91.52296448 146.19322205 C85.21812378 146.20231414 78.9135761 146.19034252 72.60877991 146.16651917 C65.3234587 146.13930839 58.03883714 146.14812289 50.75353289 146.17565119 C44.49432154 146.19835407 38.2353206 146.20153669 31.97608137 146.18845785 C28.23954267 146.18066967 24.50333266 146.17960387 20.76681519 146.19614029 C16.60092351 146.21328971 12.43623456 146.18951057 8.270401 146.16163635 C7.0338829 146.17175751 5.79736481 146.18187866 4.52337646 146.19230652 C-0.23817464 146.13318698 -3.63248392 146.0323552 -7.87606812 143.78601074 C-10.66546901 138.52473904 -10.29653079 133.39076555 -10.24156189 127.52613831 C-10.24670295 126.19199676 -10.25398565 124.857862 -10.26324463 123.52374268 C-10.28174203 119.90792661 -10.26883216 116.29284893 -10.24915433 112.6770637 C-10.23275574 108.89127811 -10.24158224 105.10553883 -10.24667358 101.31973267 C-10.25119267 94.96361 -10.23533511 88.6077818 -10.2073822 82.25172424 C-10.1753171 74.90397361 -10.1753518 67.55675362 -10.19259697 60.20896524 C-10.20846084 53.13798682 -10.20173039 46.0672029 -10.18465996 38.99623299 C-10.17778871 35.98790368 -10.17882253 32.97973024 -10.18620491 29.97140312 C-10.19528897 25.77190032 -10.17133504 21.57321745 -10.14390564 17.37379456 C-10.15043152 16.12433044 -10.1569574 14.87486633 -10.16368103 13.58753967 C-10.15095657 12.44494186 -10.13823212 11.30234406 -10.12512207 10.12512207 C-10.12231515 9.13239257 -10.11950823 8.13966307 -10.11661625 7.11685085 C-8.99509247 1.3510317 -5.44490683 0.01539536 0 0 Z " fill="#FE4055" transform="translate(361.61045837402344,321.48533630371094)"/>
<path d="M0 0 C15.30579474 12.18723906 23.49938645 27.11186806 28.6875 45.61328125 C29.0175 46.60328125 29.3475 47.59328125 29.6875 48.61328125 C31.48307884 72.77310407 27.72684974 93.80723714 11.6875 112.61328125 C11.09324219 113.40734375 10.49898437 114.20140625 9.88671875 115.01953125 C-2.07636283 129.12874292 -20.25642162 137.21038109 -38.3125 139.61328125 C-62.28455069 140.90236774 -83.2084597 134.38324315 -101.421875 118.37109375 C-116.32150861 104.1560379 -124.17929612 85.0537116 -124.78320312 64.69433594 C-124.97178471 44.45953183 -119.65516029 27.13073639 -106.3125 11.61328125 C-105.15234375 10.15728516 -105.15234375 10.15728516 -103.96875 8.671875 C-78.6279923 -21.65894547 -30.30828653 -22.39666639 0 0 Z " fill="#2E2E5A" transform="translate(303.3125,105.38671875)"/>
<path d="M0 0 C110.88 0 221.76 0 336 0 C336 11.55 336 23.1 336 35 C225.12 35 114.24 35 0 35 C0 23.45 0 11.9 0 0 Z " fill="#D2DBFA" transform="translate(88,15)"/>
<path d="M0 0 C5.46131319 4.83659776 9.4093505 11.71944609 13.5 17.6875 C14.92285373 19.74892115 16.34603678 21.81011501 17.76953125 23.87109375 C18.47932129 24.90089355 19.18911133 25.93069336 19.92041016 26.99169922 C22.41765254 30.60416936 24.93691234 34.20070097 27.46240234 37.79345703 C29.17482362 40.2319488 30.87886165 42.6761341 32.58203125 45.12109375 C34.94575046 48.510255 37.34450192 51.87147222 39.76171875 55.22265625 C40.96645422 56.91905187 42.17089178 58.6156591 43.375 60.3125 C43.94114014 61.08303711 44.50728027 61.85357422 45.09057617 62.64746094 C48.3037127 67.21765795 49.82426148 70.20809123 49 76 C47.45737187 78.10358381 46.31891683 78.84054159 44 80 C42.03496373 80.10456932 40.06634779 80.143912 38.09855652 80.15390015 C36.21208656 80.16680084 36.21208656 80.16680084 34.2875061 80.17996216 C32.88592571 80.18439751 31.48434487 80.18869586 30.08276367 80.19287109 C28.61276556 80.20077112 27.14276939 80.20904001 25.67277527 80.21765137 C20.83785863 80.24388186 16.00293329 80.25917948 11.16796875 80.2734375 C9.50452481 80.27879666 7.84108092 80.28417416 6.1776371 80.28956985 C-0.74087301 80.31119961 -7.65938077 80.32993704 -14.57791615 80.34119225 C-24.49831547 80.35743628 -34.41832342 80.39062366 -44.33857518 80.44759309 C-51.3110352 80.48627125 -58.28339043 80.50582237 -65.25595492 80.51111281 C-69.42184499 80.51476908 -73.58731773 80.52681895 -77.75309181 80.55921555 C-81.67253185 80.58925941 -85.59130125 80.59562162 -89.51083183 80.58383179 C-90.94877241 80.58361074 -92.38674377 80.59194165 -93.82457733 80.60948563 C-95.78878944 80.63214633 -97.75330517 80.62090742 -99.71760559 80.60800171 C-100.81655057 80.61131186 -101.91549555 80.614622 -103.04774189 80.61803246 C-106.97580694 79.79572235 -108.48804758 78.0539985 -111 75 C-111.65234375 72.60546875 -111.65234375 72.60546875 -111 70 C-109.25946927 67.58799548 -107.55739565 65.49165951 -105.5625 63.3125 C-105.01553467 62.69528076 -104.46856934 62.07806152 -103.9050293 61.44213867 C-102.28237811 59.61650789 -100.64413044 57.80628563 -99 56 C-97.77023438 54.63875 -97.77023438 54.63875 -96.515625 53.25 C-95.05686364 51.63605127 -93.59595343 50.02404195 -92.1328125 48.4140625 C-89.90700396 45.89474074 -87.7938917 43.30727749 -85.6875 40.6875 C-81.28729145 35.24696193 -76.58403626 30.14278424 -71.8125 25.03125 C-68.90399059 21.91220506 -66.08693415 18.72039365 -63.3046875 15.48828125 C-62.24884029 14.28385674 -61.13257488 13.13257488 -60 12 C-56.19703238 11.8478813 -54.12303333 12.14174689 -51.078125 14.46875 C-46.27647161 19.15516371 -42.12440412 24.41358911 -37.98046875 29.6796875 C-36.03291532 32.17504293 -36.03291532 32.17504293 -33 34 C-32.6282666 33.46745605 -32.2565332 32.93491211 -31.87353516 32.38623047 C-28.20117434 27.12722871 -24.52290763 21.87240899 -20.83886719 16.62158203 C-19.6874432 14.98005378 -18.53690907 13.33790058 -17.38769531 11.69482422 C-16.01283172 9.73092861 -14.6324711 7.77104445 -13.25 5.8125 C-12.84475098 5.23161621 -12.43950195 4.65073242 -12.02197266 4.05224609 C-8.317598 -1.17097013 -6.32273996 -1.68606399 0 0 Z " fill="#2E2E5A" transform="translate(148,335)"/>
<path d="M0 0 C9.71758631 7.81631942 16.14512767 15.90334891 21.515625 27.0234375 C21.97066406 27.9309375 22.42570312 28.8384375 22.89453125 29.7734375 C29.18063505 44.84256437 26.28871675 63.32829487 20.515625 78.0234375 C19.855625 78.0234375 19.195625 78.0234375 18.515625 78.0234375 C17.87625 77.3634375 17.236875 76.7034375 16.578125 76.0234375 C8.63046257 67.84473838 -1.29133615 62.78514908 -11.484375 58.0234375 C-11.05125 57.28222656 -10.618125 56.54101562 -10.171875 55.77734375 C-4.79845477 45.61511151 -3.13472512 35.65979962 -6.5625 24.51953125 C-10.6245067 15.60320335 -16.06567986 10.04514494 -25.234375 6.5859375 C-33.89149087 4.06412947 -42.2378508 3.52547372 -50.39453125 7.7734375 C-51.08417969 8.1859375 -51.77382812 8.5984375 -52.484375 9.0234375 C-53.18433594 9.4359375 -53.88429687 9.8484375 -54.60546875 10.2734375 C-61.04454639 14.55804115 -65.05089136 20.72298657 -67.484375 28.0234375 C-68.49125435 39.621668 -67.45625639 47.80370001 -61.484375 58.0234375 C-62.26131714 58.39927979 -62.26131714 58.39927979 -63.05395508 58.78271484 C-72.95714637 63.6293549 -81.76774436 68.29518491 -89.55078125 76.1875 C-91.484375 78.0234375 -91.484375 78.0234375 -93.484375 78.0234375 C-99.53792865 63.12737155 -102.08535051 44.83762949 -95.73828125 29.578125 C-95.11759766 28.31355469 -95.11759766 28.31355469 -94.484375 27.0234375 C-94.06027344 26.09789062 -93.63617188 25.17234375 -93.19921875 24.21875 C-89.68227116 17.14566878 -85.03783179 11.59601118 -79.484375 6.0234375 C-78.86949219 5.38535156 -78.25460938 4.74726562 -77.62109375 4.08984375 C-56.85163313 -15.87908091 -22.98308318 -16.14455843 0 0 Z " fill="#D0D9F8" transform="translate(292.484375,115.9765625)"/>
<path d="M0 0 C4.13347226 3.33085628 7.8268692 7.03925757 11.4140625 10.9453125 C0.91693042 23.94176175 -12.86808933 32.32800216 -29.80322266 34.18896484 C-46.68471358 35.45004295 -62.11884025 31.58882198 -75.34375 20.66796875 C-82.01053612 14.80841456 -82.01053612 14.80841456 -84.5859375 10.9453125 C-62.47831493 -13.73296386 -27.65890235 -19.09577469 0 0 Z " fill="#FC4055" transform="translate(292.5859375,196.0546875)"/>
<path d="M0 0 C0.66 0 1.32 0 2 0 C3.19824219 1.42675781 3.19824219 1.42675781 4.546875 3.453125 C5.30991943 4.58609009 5.30991943 4.58609009 6.08837891 5.74194336 C6.63671387 6.56960205 7.18504883 7.39726074 7.75 8.25 C8.91820668 9.9863935 10.08751621 11.72204542 11.2578125 13.45703125 C11.86786133 14.36404785 12.47791016 15.27106445 13.10644531 16.20556641 C16.23100456 20.81666816 19.42623327 25.3776993 22.625 29.9375 C23.21635742 30.78280273 23.80771484 31.62810547 24.41699219 32.49902344 C27.46805419 36.8749002 27.46805419 36.8749002 30.68115234 41.13110352 C32 43 32 43 32 45 C-5.29 45 -42.58 45 -81 45 C-78.03284379 40.54926569 -75.42169181 37.13001457 -71.8125 33.3125 C-67.30387705 28.49479679 -63.08397675 23.53912593 -58.97265625 18.375 C-57.09147784 16.1101357 -55.11586019 14.04485817 -53 12 C-48.92880127 13.57687275 -46.45126522 16.49845608 -43.625 19.6875 C-43.13676758 20.22479736 -42.64853516 20.76209473 -42.14550781 21.31567383 C-39.55006701 24.18734493 -37.11387593 27.12085015 -34.75 30.1875 C-32.17870095 33.23285292 -32.17870095 33.23285292 -28.4375 34.25 C-23.84211225 33.91578998 -23.02229398 32.41532772 -20 29 C-18.15729922 26.55986518 -16.44788171 24.04238746 -14.75 21.5 C-13.78777115 20.08332604 -12.82553139 18.66665949 -11.86328125 17.25 C-10.4562921 15.16444605 -9.05183517 13.07723722 -7.64990234 10.98828125 C-6.41776643 9.15518278 -5.17804434 7.32741328 -3.9375 5.5 C-3.22464844 4.4378125 -2.51179688 3.375625 -1.77734375 2.28125 C-1.19082031 1.5284375 -0.60429687 0.775625 0 0 Z " fill="#88E369" transform="translate(143,355)"/>
<path d="M0 0 C1.16784027 -0.01272446 2.33568054 -0.02544891 3.53890991 -0.03855896 C4.81642624 -0.03203308 6.09394257 -0.0255072 7.41017151 -0.01878357 C8.77209915 -0.02584256 10.13401895 -0.0345875 11.4959259 -0.04489136 C15.19231635 -0.06739874 18.8882789 -0.0644426 22.58471179 -0.05556989 C25.67124847 -0.05046044 28.7577047 -0.05775223 31.8442331 -0.06504196 C39.12621244 -0.08204545 46.40798226 -0.07847097 53.68995667 -0.06175232 C61.20074381 -0.04483123 68.71094977 -0.06066385 76.22167343 -0.0929752 C82.67192873 -0.11967241 89.12200312 -0.12694678 95.57230812 -0.11846012 C99.42401244 -0.11353109 103.27536709 -0.11574467 107.12702751 -0.13624763 C110.74947337 -0.15460718 114.37108353 -0.14864418 117.9934845 -0.12404823 C119.95461818 -0.11665514 121.91579634 -0.13389401 123.87686157 -0.15187073 C133.46449751 -0.04823554 133.46449751 -0.04823554 136.60073853 2.82754517 C138.27565002 5.5146637 138.27565002 5.5146637 138.33815002 9.1396637 C137.15347177 12.90275934 136.60328565 13.60778471 133.27565002 15.5146637 C130.62381744 15.89498043 130.62381744 15.89498043 127.54457092 15.90234375 C125.79064278 15.9172007 125.79064278 15.9172007 124.00128174 15.93235779 C122.72219437 15.92785614 121.44310699 15.92335449 120.1252594 15.91871643 C118.76171306 15.92441997 117.39817149 15.93138418 116.03463745 15.93951416 C112.33424171 15.95746137 108.63408289 15.95627449 104.93365669 15.95057178 C101.84455261 15.94748257 98.75549421 15.95356927 95.66639662 15.95961052 C88.37969637 15.97365886 81.09311336 15.97209154 73.80641174 15.96070862 C66.28773258 15.94922291 58.76940991 15.96330974 51.25077772 15.99010509 C44.79546072 16.01225 38.34025573 16.01890235 31.88490343 16.01302868 C28.02936293 16.00965546 24.17405106 16.01209827 20.31854248 16.02927971 C16.69374759 16.04472808 13.0694817 16.0408175 9.44470787 16.02197456 C7.47980304 16.01652187 5.51487458 16.03081821 3.55001831 16.04566956 C2.38073288 16.03583542 1.21144745 16.02600128 0.00672913 16.01586914 C-1.00942223 16.01565986 -2.02557358 16.01545057 -3.0725174 16.01523495 C-6.46402175 15.37504009 -7.64855029 14.22865008 -9.72434998 11.5146637 C-10.22434998 8.0146637 -10.22434998 8.0146637 -9.72434998 4.5146637 C-6.7824838 0.67079147 -4.76269311 0.01317285 0 0 Z " fill="#2D2D59" transform="translate(183.72434997558594,466.48533630371094)"/>
<path d="M0 0 C1.00100235 -0.00990463 2.0020047 -0.01980927 3.03334045 -0.03001404 C4.12541306 -0.02551239 5.21748566 -0.02101074 6.34265137 -0.01637268 C7.4974852 -0.02323593 8.65231903 -0.03009918 9.84214783 -0.03717041 C13.66470587 -0.05549254 17.48685566 -0.05159334 21.30944824 -0.0459137 C23.29189703 -0.04932067 25.27434601 -0.05273488 27.25679255 -0.05726677 C33.48874508 -0.07131053 39.72056052 -0.06975162 45.95251465 -0.05836487 C52.38058515 -0.0468793 58.80823865 -0.06096656 65.23625422 -0.08776134 C70.75740068 -0.10991372 76.27841619 -0.11655695 81.79960394 -0.11068493 C85.09626164 -0.10731348 88.39259242 -0.11144717 91.68922424 -0.12693596 C95.36438262 -0.14177067 99.0386162 -0.13122332 102.71374512 -0.11402893 C103.80581772 -0.1236969 104.89789032 -0.13336487 106.02305603 -0.14332581 C107.02405838 -0.13349167 108.02506073 -0.12365753 109.05639648 -0.11352539 C110.3593932 -0.11321146 110.3593932 -0.11321146 111.68871307 -0.1128912 C114.84955861 0.56342359 116.05309553 1.8765744 118.02819824 4.38768005 C118.5582066 8.09773857 118.66866518 10.33138641 116.70310974 13.5730896 C112.36024683 16.51917495 107.85743454 15.95181369 102.72961426 15.92112732 C101.57638672 15.92974289 100.42315918 15.93835846 99.23498535 15.94723511 C95.41713106 15.96996581 91.60000658 15.96314246 87.78210449 15.9540863 C85.80149332 15.95799665 83.82088176 15.96191709 81.84027427 15.96738571 C75.61303706 15.98438385 69.38604489 15.98082032 63.15881348 15.96409607 C56.73862129 15.94717632 50.31910908 15.96300651 43.89899117 15.99531895 C38.38290334 16.02202763 32.86702703 16.02928747 27.35088104 16.02080387 C24.05804362 16.01587795 20.76570541 16.02017383 17.4729023 16.03859138 C13.80015433 16.05598307 10.12886562 16.04153652 6.45617676 16.01878357 C5.36769943 16.03047577 4.27922211 16.04216797 3.15776062 16.05421448 C-4.17512351 15.96164449 -4.17512351 15.96164449 -8.18214417 13.07479858 C-9.97180176 10.38768005 -9.97180176 10.38768005 -10.03430176 6.76268005 C-8.33035496 1.35014315 -5.50260271 0.01539231 0 0 Z " fill="#2D2D59" transform="translate(259.9718017578125,269.61231994628906)"/>
<path d="M0 0 C6.06343563 3.8805988 10.95667407 9.08758162 13.1875 16 C14.13757005 23.29123523 13.37764424 29.86043036 9.1875 36 C3.79463459 42.0383435 -1.01864162 45.40917892 -9.1875 46.2421875 C-15.26635125 46.55724991 -19.88255487 45.66166049 -24.8125 42 C-30.95363437 36.20415029 -34.90485316 30.73209923 -35.25 22.125 C-35.02618613 15.15233713 -33.53760694 10.85729496 -28.71875 5.8046875 C-20.54144386 -1.80020721 -10.69057161 -5.44614025 0 0 Z " fill="#302F5B" transform="translate(64.8125,292)"/>
<path d="M0 0 C3.5 0.5 3.5 0.5 5.9375 2.0625 C8.50405572 6.06632692 7.74535334 10.14756421 6.91949463 14.69985962 C6.64732117 15.78842255 6.37514771 16.87698547 6.09472656 17.99853516 C5.7873053 19.24317535 5.47988403 20.48781555 5.16314697 21.77017212 C4.82286567 23.10994444 4.4820111 24.44957127 4.140625 25.7890625 C3.79112799 27.17946593 3.44199253 28.56996028 3.09320068 29.96054077 C2.36241927 32.86514151 1.6252151 35.76802088 0.88378906 38.66992188 C-0.06313943 42.37953971 -0.99067028 46.09370189 -1.91305161 49.8094883 C-2.62818753 52.67888251 -3.355183 55.54517309 -4.08557892 58.41071701 C-4.43244955 59.77877064 -4.77529645 61.14785132 -5.11394501 62.51796341 C-5.58936626 64.43515569 -6.08290932 66.34782631 -6.57714844 68.26025391 C-6.85250427 69.34722565 -7.12786011 70.43419739 -7.41156006 71.55410767 C-8.63530404 74.86620408 -10.03681664 76.97753489 -12.5 79.5 C-16 80.125 -16 80.125 -19.5 79.5 C-22 77.625 -22 77.625 -23.5 74.5 C-23.66792329 66.4154024 -21.19442428 58.31145895 -19.26171875 50.5390625 C-18.93622772 49.2177716 -18.61093953 47.89643072 -18.2858429 46.57504272 C-17.60740416 43.82562184 -16.92327149 41.07769065 -16.2355957 38.33056641 C-15.35705905 34.81703317 -14.49815616 31.29901361 -13.64398479 27.77948952 C-12.9801869 25.05754705 -12.30356141 22.33891416 -11.62330055 19.62104416 C-11.14508202 17.69769871 -10.6796849 15.77117994 -10.21452332 13.84463501 C-9.76935112 12.09163589 -9.76935112 12.09163589 -9.31518555 10.30322266 C-9.06061081 9.2763736 -8.80603607 8.24952454 -8.54374695 7.19155884 C-6.77326321 2.62593001 -4.86127692 0.69446813 0 0 Z " fill="#322D58" transform="translate(432.5,354.5)"/>
<path d="M0 0 C5.96475894 1.25067526 9.3866055 4.83200277 13.875 8.8125 C15.1750181 9.92169594 16.47724315 11.02830863 17.78125 12.1328125 C19.14662224 13.29594956 20.5112068 14.4600119 21.875 15.625 C22.53435547 16.18791748 23.19371094 16.75083496 23.87304688 17.33081055 C24.49244141 17.86746338 25.11183594 18.40411621 25.75 18.95703125 C26.58144531 19.67403198 26.58144531 19.67403198 27.4296875 20.40551758 C28.875 21.8125 28.875 21.8125 30.875 24.8125 C30.78875576 28.96180619 30.43038776 31.14234576 27.7578125 34.3671875 C26.84773438 35.13289063 25.93765625 35.89859375 25 36.6875 C23.51693359 37.95400391 23.51693359 37.95400391 22.00390625 39.24609375 C20.9620724 40.10294428 19.91910075 40.95841322 18.875 41.8125 C17.87339844 42.64910156 16.87179687 43.48570312 15.83984375 44.34765625 C13.20445192 46.52903711 10.55609389 48.6876136 7.875 50.8125 C7.1840625 51.38355469 6.493125 51.95460938 5.78125 52.54296875 C2.80020842 54.52829357 0.34989473 54.19157942 -3.125 53.8125 C-5.0625 52.8125 -5.0625 52.8125 -6.125 50.8125 C-6.78107726 46.87603646 -7.18574561 44.37641982 -4.90625 41.015625 C-3.07328127 39.1307798 -1.16487746 37.47236514 0.875 35.8125 C1.76316406 35.08160156 2.65132813 34.35070312 3.56640625 33.59765625 C5.98265502 31.64197268 8.41762634 29.71609932 10.875 27.8125 C8.26365682 25.13829115 5.63320662 22.56398769 2.796875 20.12890625 C2.27609375 19.67580078 1.7553125 19.22269531 1.21875 18.75585938 C0.14921173 17.82918835 -0.929118 16.91257534 -2.015625 16.00585938 C-4.67313469 13.66392896 -6.04869026 12.06613605 -7.078125 8.64453125 C-7.125 5.8125 -7.125 5.8125 -5.625 2.9375 C-3.125 0.8125 -3.125 0.8125 0 0 Z " fill="#312D58" transform="translate(451.125,367.1875)"/>
<path d="M0 0 C2.375 1 2.375 1 4 3 C4.72918178 6.97735519 5.08734742 9.40198143 2.77734375 12.796875 C0.94682959 14.6836461 -0.96037757 16.34034238 -3 18 C-3.88816406 18.73089844 -4.77632813 19.46179688 -5.69140625 20.21484375 C-8.10765502 22.17052732 -10.54262634 24.09640068 -13 26 C-10.39216099 28.68525167 -7.7761383 31.23244252 -4.88671875 33.61328125 C-4.36142578 34.05736328 -3.83613281 34.50144531 -3.29492188 34.95898438 C-2.21752683 35.86619551 -1.12597995 36.7568447 -0.02148438 37.63085938 C2.18507223 39.53589893 3.83841261 41.14406182 4.39038086 44.06787109 C4.43297093 46.99238897 4.32439138 49.38938093 2.9375 52 C-0.44278877 53.74466517 -2.20614209 53.66241964 -6 53 C-9.64806167 50.68629646 -12.7945537 47.88537938 -16 45 C-17.31291016 43.83210938 -17.31291016 43.83210938 -18.65234375 42.640625 C-20.35537221 41.11430175 -22.04851517 39.57686004 -23.73046875 38.02734375 C-25.61662765 36.3424617 -27.52223925 34.86015401 -29.5625 33.375 C-32 31 -32 31 -33.1875 27.5625 C-32.99188 23.84571998 -32.39553666 22.31800365 -29.8359375 19.65234375 C-26.64387955 16.7794916 -23.34420945 14.05982815 -19.98046875 11.390625 C-17.96886087 9.77712039 -15.9922864 8.1190848 -14.05078125 6.421875 C-13.10589844 5.60203125 -12.16101563 4.7821875 -11.1875 3.9375 C-10.33542969 3.18339844 -9.48335938 2.42929687 -8.60546875 1.65234375 C-5.45702533 -0.34434526 -3.66422798 -0.40037899 0 0 Z " fill="#302D58" transform="translate(400,368)"/>
<path d="M0 0 C1.83726906 -0.0238678 1.83726906 -0.0238678 3.71165466 -0.04821777 C5.03149857 -0.04841919 6.35134247 -0.04862061 7.71118164 -0.04882812 C9.08354503 -0.05593217 10.45590546 -0.06363153 11.82826233 -0.07189941 C14.70232401 -0.08533494 17.57611105 -0.08691733 20.45019531 -0.08105469 C24.12700261 -0.07515895 27.80248923 -0.10574626 31.4790411 -0.14617157 C34.31273962 -0.17206595 37.14612083 -0.17492454 39.97992134 -0.17127991 C41.9923795 -0.1737891 44.00477059 -0.19847526 46.01707458 -0.22351074 C56.16986532 -0.14657579 56.16986532 -0.14657579 59.30322266 2.73046875 C60.93383789 5.41992188 60.93383789 5.41992188 60.93383789 9.04492188 C59.6193763 13.48122975 59.6193763 13.48122975 56.93383789 15.41992188 C54.17030334 15.81433105 54.17030334 15.81433105 50.78173828 15.83984375 C49.51354752 15.85575562 48.24535675 15.87166748 46.93873596 15.88806152 C45.55298925 15.88932875 44.16724118 15.88950566 42.78149414 15.88867188 C41.36046548 15.89577261 39.93943969 15.90347148 38.51841736 15.91174316 C35.5400292 15.92519202 32.56190612 15.92675514 29.58349609 15.92089844 C25.76869717 15.91500246 21.95517103 15.94558513 18.14061832 15.98601532 C15.2057359 16.01188018 12.27116042 16.01477094 9.33617973 16.01112366 C7.92995442 16.01281617 6.52371512 16.02247161 5.11760139 16.04026794 C3.15030232 16.06242622 1.18270319 16.04955615 -0.78466797 16.03515625 C-2.46320107 16.03823792 -2.46320107 16.03823792 -4.17564392 16.04138184 C-7.06616211 15.41992188 -7.06616211 15.41992188 -9.45875549 13.10803223 C-11.06616211 10.41992188 -11.06616211 10.41992188 -11.06616211 6.79492188 C-9.2791431 0.76373271 -5.93577806 0.04638172 0 0 Z " fill="#2D2D59" transform="translate(261.066162109375,387.580078125)"/>
<path d="M0 0 C1.26811523 -0.01260864 2.53623047 -0.02521729 3.84277344 -0.03820801 C5.22331295 -0.03104817 6.60384739 -0.02284418 7.984375 -0.01367188 C9.40397406 -0.0163675 10.82357131 -0.02025051 12.24316406 -0.02526855 C15.21567394 -0.03116045 18.18770241 -0.02261142 21.16015625 -0.00390625 C24.96696287 0.01888413 28.77264149 0.00575925 32.57940674 -0.01819611 C35.51001456 -0.03266301 38.44035574 -0.02804423 41.37097168 -0.01768494 C42.77437474 -0.01502007 44.17780215 -0.01827905 45.58117676 -0.02760315 C47.54369635 -0.03778128 49.50630102 -0.01951228 51.46875 0 C52.58475586 0.00318237 53.70076172 0.00636475 54.85058594 0.00964355 C58.37510594 0.63043291 59.56505558 1.72605964 61.734375 4.51757812 C62.046875 6.55273438 62.046875 6.55273438 61.734375 8.58007812 C61.651875 9.25167969 61.569375 9.92328125 61.484375 10.61523438 C60.43682993 13.27228879 59.17356065 14.04840712 56.734375 15.51757812 C53.92651367 15.89852905 53.92651367 15.89852905 50.65234375 15.90576172 C49.42427002 15.9152182 48.19619629 15.92467468 46.9309082 15.93441772 C45.59456051 15.92904784 44.25821577 15.92289484 42.921875 15.91601562 C41.54711757 15.91803745 40.17236119 15.92094979 38.79760742 15.92471313 C35.91932951 15.92913145 33.04133129 15.92272168 30.16308594 15.90869141 C26.47751094 15.89159936 22.79259137 15.90144324 19.10704041 15.9194088 C16.26911499 15.93026022 13.43134444 15.92679416 10.59341431 15.91902542 C9.23466921 15.91702715 7.87590996 15.91946962 6.5171814 15.92646408 C4.61692583 15.93409994 2.71662083 15.92039386 0.81640625 15.90576172 C-0.80430786 15.90218155 -0.80430786 15.90218155 -2.45776367 15.89852905 C-5.61680094 15.46993304 -6.98235129 14.70206438 -9.265625 12.51757812 C-10.015625 10.61523438 -10.015625 10.61523438 -10.265625 8.58007812 C-10.36875 7.91105469 -10.471875 7.24203125 -10.578125 6.55273438 C-9.69500131 0.80139136 -5.00593383 0.01427479 0 0 Z " fill="#2D2D59" transform="translate(260.265625,348.482421875)"/>
<path d="M0 0 C1.26811523 -0.01260864 2.53623047 -0.02521729 3.84277344 -0.03820801 C5.22331295 -0.03104817 6.60384739 -0.02284418 7.984375 -0.01367188 C9.40397406 -0.0163675 10.82357131 -0.02025051 12.24316406 -0.02526855 C15.21567394 -0.03116045 18.18770241 -0.02261142 21.16015625 -0.00390625 C24.96696287 0.01888413 28.77264149 0.00575925 32.57940674 -0.01819611 C35.51001456 -0.03266301 38.44035574 -0.02804423 41.37097168 -0.01768494 C42.77437474 -0.01502007 44.17780215 -0.01827905 45.58117676 -0.02760315 C47.54369635 -0.03778128 49.50630102 -0.01951228 51.46875 0 C52.58475586 0.00318237 53.70076172 0.00636475 54.85058594 0.00964355 C58.39465173 0.6338756 59.57831633 1.68365795 61.734375 4.51757812 C62.234375 7.51757812 62.234375 7.51757812 61.734375 10.51757812 C59.8672759 12.82033369 58.37789759 14.19581683 55.734375 15.51757812 C53.82108228 15.63430258 51.9037705 15.68728519 49.98706055 15.71044922 C48.7820842 15.72651215 47.57710785 15.74257507 46.33561707 15.75912476 C40.82246039 15.80347293 35.30943518 15.845079 29.79614258 15.86767578 C26.88501543 15.88101242 23.97458973 15.90885846 21.0637207 15.94970703 C17.54704117 15.99905624 14.03099759 16.02379925 10.51398659 16.03090286 C8.52583332 16.04086658 6.53784958 16.07510523 4.54997253 16.10971069 C-5.49420466 16.08613897 -5.49420466 16.08613897 -8.59057617 13.17626953 C-10.64558042 9.91450065 -10.99029759 8.30197943 -10.265625 4.51757812 C-7.18103524 0.48016537 -4.98094715 0.01420354 0 0 Z " fill="#2D2D5A" transform="translate(260.265625,427.482421875)"/>
<path d="M0 0 C1.80723793 -0.01418472 1.80723793 -0.01418472 3.65098572 -0.02865601 C4.94895584 -0.02258331 6.24692596 -0.01651062 7.58422852 -0.01025391 C8.9341701 -0.012276 10.28411061 -0.01518857 11.63404846 -0.01895142 C14.46105364 -0.02336996 17.28777407 -0.01696027 20.11474609 -0.00292969 C23.73072503 0.01414599 27.3460351 0.00432905 30.9619894 -0.01364708 C33.74934383 -0.02451192 36.53654094 -0.02102603 39.32390022 -0.0132637 C41.30305034 -0.01030059 43.28220667 -0.01938197 45.26133728 -0.02865601 C46.46931473 -0.01919952 47.67729218 -0.00974304 48.921875 0 C50.51261086 0.00358017 50.51261086 0.00358017 52.13548279 0.00723267 C55.483907 0.44858846 57.36026497 1.3306196 60.02563477 3.38818359 C61.08813477 6.76318359 61.08813477 6.76318359 61.02563477 10.38818359 C59.41333008 13.0743103 59.41333008 13.0743103 57.02563477 15.38818359 C54.1418457 16.02310181 54.1418457 16.02310181 50.76000977 16.03515625 C49.49189453 16.05091705 48.2237793 16.06667786 46.91723633 16.08291626 C45.53669363 16.07396645 44.15615886 16.06371145 42.77563477 16.05224609 C41.35603419 16.05561563 39.93643642 16.06046939 38.5168457 16.06674194 C35.54423507 16.07410707 32.57237658 16.06342107 29.59985352 16.04003906 C25.79282773 16.01154945 21.98756417 16.02795565 18.18060303 16.05790138 C15.24994674 16.07598532 12.31970705 16.07021177 9.38903809 16.05726242 C7.98563426 16.05393133 6.58219239 16.05800518 5.17883301 16.06966019 C3.21631613 16.08238283 1.25366632 16.05954607 -0.70874023 16.03515625 C-1.82474609 16.03117828 -2.94075195 16.02720032 -4.09057617 16.02310181 C-6.97436523 15.38818359 -6.97436523 15.38818359 -9.3659668 13.0743103 C-10.97436523 10.38818359 -10.97436523 10.38818359 -10.97436523 6.76318359 C-9.19947632 0.7729335 -5.90493356 0.01329984 0 0 Z " fill="#2D2D5A" transform="translate(260.974365234375,308.61181640625)"/>
<path d="M0 0 C4.10533243 2.37288214 7.00463984 4.96201225 8.75 9.4375 C9.74754374 15.38187952 9.63719813 20.70956703 6.5625 26 C3.90296464 29.62117527 1.1319633 31.53399668 -3.0625 33.125 C-10.44896841 34.18020977 -14.28015223 33.62969696 -20.328125 29.125 C-23.92853915 25.96366074 -25.01658995 23.36112077 -25.58984375 18.63671875 C-25.88757428 12.80555743 -25.73103321 8.35151984 -21.79296875 3.83984375 C-15.28487765 -2.07510487 -8.23857155 -3.58401135 0 0 Z " fill="#FBB032" transform="translate(264.25,136.5625)"/>
<path d="M0 0 C1.3096875 0.01289063 2.619375 0.02578125 3.96875 0.0390625 C7.12455357 0.33928275 8.92709002 0.59666516 11.5 2.375 C13.02491998 5.42483996 12.73562548 8.0173369 12.5 11.375 C10.95737187 13.47858381 9.81891683 14.21554159 7.5 15.375 C5.02443304 15.55182621 2.60250105 15.65230822 0.125 15.6875 C-0.54789062 15.71650391 -1.22078125 15.74550781 -1.9140625 15.77539062 C-5.3209205 15.81898231 -7.17156272 15.61686835 -9.9453125 13.57421875 C-12.21513131 10.36339465 -12.04780673 8.20964713 -11.5 4.375 C-8.26960268 -0.16370823 -5.35984858 -0.11605971 0 0 Z " fill="#2F2F5B" transform="translate(395.5,24.625)"/>
<path d="M0 0 C1.3096875 0.01289063 2.619375 0.02578125 3.96875 0.0390625 C7.12455357 0.33928275 8.92709002 0.59666516 11.5 2.375 C13.02491998 5.42483996 12.73562548 8.0173369 12.5 11.375 C10.95737187 13.47858381 9.81891683 14.21554159 7.5 15.375 C5.02443304 15.55182621 2.60250105 15.65230822 0.125 15.6875 C-0.54789062 15.71650391 -1.22078125 15.74550781 -1.9140625 15.77539062 C-5.3209205 15.81898231 -7.17156272 15.61686835 -9.9453125 13.57421875 C-12.21513131 10.36339465 -12.04780673 8.20964713 -11.5 4.375 C-8.26960268 -0.16370823 -5.35984858 -0.11605971 0 0 Z " fill="#2F2F5B" transform="translate(355.5,24.625)"/>
<path d="M0 0 C2.96045738 2.59040021 3.85478339 4.12870035 4.5 8 C3.88466097 11.69203416 2.58383614 13.34016868 0 16 C-2.85324437 17.42662219 -4.83454549 17.31033868 -8 17 C-10.89839328 15.45419025 -12.54079398 14.27883538 -13.671875 11.12890625 C-14.41273528 7.20975539 -14.33323283 5.540067 -12.1875 2.0625 C-8.33066357 -1.57394577 -4.9684688 -1.4237707 0 0 Z " fill="#F9AF32" transform="translate(59,306)"/>
<path d="M0 0 C2.6875 1.5625 2.6875 1.5625 4 4 C4.54407614 7.80853299 4.52035388 10.03362851 2.6875 13.4375 C-1.6749357 15.97379983 -6.08895747 15.72286969 -11 15 C-13.6875 13.4375 -13.6875 13.4375 -15 11 C-15.54407614 7.19146701 -15.52035388 4.96637149 -13.6875 1.5625 C-9.3250643 -0.97379983 -4.91104253 -0.72286969 0 0 Z " fill="#2D2D59" transform="translate(159,467)"/>
<path d="M0 0 C2.6875 1.5625 2.6875 1.5625 4 4 C4.54407614 7.80853299 4.52035388 10.03362851 2.6875 13.4375 C-1.6749357 15.97379983 -6.08895747 15.72286969 -11 15 C-13.6875 13.4375 -13.6875 13.4375 -15 11 C-15.54407614 7.19146701 -15.52035388 4.96637149 -13.6875 1.5625 C-9.3250643 -0.97379983 -4.91104253 -0.72286969 0 0 Z " fill="#2D2D59" transform="translate(129,467)"/>
<path d="M0 0 C2.6875 1.5625 2.6875 1.5625 4 4 C4.54407614 7.80853299 4.52035388 10.03362851 2.6875 13.4375 C-1.6749357 15.97379983 -6.08895747 15.72286969 -11 15 C-13.6875 13.4375 -13.6875 13.4375 -15 11 C-15.54407614 7.19146701 -15.52035388 4.96637149 -13.6875 1.5625 C-9.3250643 -0.97379983 -4.91104253 -0.72286969 0 0 Z " fill="#2D2D59" transform="translate(404,270)"/>
</svg>
